<mxfile host="app.diagrams.net" modified="2022-03-10T11:23:48.182Z" agent="5.0 (Windows NT 10.0; Win64; x64) AppleWebKit/537.36 (KHTML, like Gecko) Chrome/99.0.4844.51 Safari/537.36" etag="XwRUADzzwnZF5I3eaBiB" version="17.1.0" type="github">
  <diagram id="3su092B6f2OQ03xG6c9O" name="Page-1">
    <mxGraphModel dx="1211" dy="624" grid="1" gridSize="10" guides="1" tooltips="1" connect="1" arrows="1" fold="1" page="1" pageScale="1" pageWidth="827" pageHeight="1169" math="0" shadow="0">
      <root>
        <mxCell id="0" />
        <mxCell id="1" parent="0" />
        <mxCell id="n-XYg9eNNjNnusgToyhC-4" value="" style="group" parent="1" vertex="1" connectable="0">
          <mxGeometry x="80" y="170" width="230" height="150" as="geometry" />
        </mxCell>
        <mxCell id="n-XYg9eNNjNnusgToyhC-1" value="&lt;div&gt;&lt;span&gt;synchronized (A){&lt;/span&gt;&lt;br&gt;&lt;/div&gt;&lt;span style=&quot;white-space: pre&quot;&gt;&lt;div&gt;&lt;span&gt;	&lt;/span&gt;&lt;span style=&quot;white-space: normal&quot;&gt;synchronized(B){&lt;/span&gt;&lt;span&gt;	&lt;/span&gt;&lt;/div&gt;&lt;/span&gt;&lt;div&gt;&lt;span style=&quot;white-space: pre&quot;&gt;	&lt;span style=&quot;white-space: pre&quot;&gt;	&lt;/span&gt;.&lt;/span&gt;..&lt;span style=&quot;white-space: pre&quot;&gt;	&lt;/span&gt;&lt;/div&gt;&lt;div&gt;&lt;span&gt;&lt;span style=&quot;white-space: pre&quot;&gt;	&lt;/span&gt;}&lt;/span&gt;&lt;/div&gt;&lt;div&gt;&lt;span&gt;}&lt;/span&gt;&lt;/div&gt;" style="rounded=0;whiteSpace=wrap;html=1;align=left;" parent="n-XYg9eNNjNnusgToyhC-4" vertex="1">
          <mxGeometry width="230" height="150" as="geometry" />
        </mxCell>
        <mxCell id="n-XYg9eNNjNnusgToyhC-21" value="" style="group" parent="n-XYg9eNNjNnusgToyhC-4" vertex="1" connectable="0">
          <mxGeometry width="143.75" height="112.49999999999999" as="geometry" />
        </mxCell>
        <mxCell id="n-XYg9eNNjNnusgToyhC-2" value="&lt;div style=&quot;text-align: left&quot;&gt;线程一&lt;/div&gt;" style="rounded=0;whiteSpace=wrap;html=1;" parent="n-XYg9eNNjNnusgToyhC-21" vertex="1">
          <mxGeometry width="57.5" height="37.5" as="geometry" />
        </mxCell>
        <mxCell id="n-XYg9eNNjNnusgToyhC-6" value="" style="group;fillColor=none;" parent="1" vertex="1" connectable="0">
          <mxGeometry x="470" y="180" width="210" height="140" as="geometry" />
        </mxCell>
        <mxCell id="n-XYg9eNNjNnusgToyhC-3" value="&lt;div&gt;&lt;span&gt;synchronized (B){&lt;/span&gt;&lt;br&gt;&lt;/div&gt;&lt;span style=&quot;white-space: pre&quot;&gt;&lt;div&gt;&lt;span&gt;	&lt;/span&gt;&lt;span style=&quot;white-space: normal&quot;&gt;synchronized(A){&lt;/span&gt;&lt;span&gt;	&lt;/span&gt;&lt;/div&gt;&lt;/span&gt;&lt;div&gt;&lt;span style=&quot;white-space: pre&quot;&gt;	&lt;span style=&quot;white-space: pre&quot;&gt;	&lt;/span&gt;.&lt;/span&gt;..&lt;span style=&quot;white-space: pre&quot;&gt;	&lt;/span&gt;&lt;/div&gt;&lt;div&gt;&lt;span&gt;&lt;span style=&quot;white-space: pre&quot;&gt;	&lt;/span&gt;}&lt;/span&gt;&lt;/div&gt;&lt;div&gt;&lt;span&gt;}&lt;/span&gt;&lt;/div&gt;" style="rounded=0;whiteSpace=wrap;html=1;align=left;" parent="n-XYg9eNNjNnusgToyhC-6" vertex="1">
          <mxGeometry width="210" height="140.00000000000003" as="geometry" />
        </mxCell>
        <mxCell id="n-XYg9eNNjNnusgToyhC-5" value="线程二" style="rounded=0;whiteSpace=wrap;html=1;" parent="n-XYg9eNNjNnusgToyhC-6" vertex="1">
          <mxGeometry width="70" height="32.94117647058823" as="geometry" />
        </mxCell>
        <mxCell id="Ba_hDjaPhDjhGHtapbVK-2" value="" style="edgeStyle=orthogonalEdgeStyle;rounded=0;orthogonalLoop=1;jettySize=auto;html=1;" edge="1" parent="1" source="n-XYg9eNNjNnusgToyhC-1">
          <mxGeometry relative="1" as="geometry">
            <mxPoint x="210" y="360" as="targetPoint" />
          </mxGeometry>
        </mxCell>
        <mxCell id="Ba_hDjaPhDjhGHtapbVK-7" value="" style="edgeStyle=orthogonalEdgeStyle;rounded=0;orthogonalLoop=1;jettySize=auto;html=1;" edge="1" parent="1" source="Ba_hDjaPhDjhGHtapbVK-3" target="Ba_hDjaPhDjhGHtapbVK-6">
          <mxGeometry relative="1" as="geometry" />
        </mxCell>
        <mxCell id="Ba_hDjaPhDjhGHtapbVK-3" value="线程一先抢到资源，先执行" style="rounded=0;whiteSpace=wrap;html=1;" vertex="1" parent="1">
          <mxGeometry x="155" y="360" width="120" height="60" as="geometry" />
        </mxCell>
        <mxCell id="Ba_hDjaPhDjhGHtapbVK-17" value="" style="edgeStyle=orthogonalEdgeStyle;rounded=0;orthogonalLoop=1;jettySize=auto;html=1;" edge="1" parent="1" source="Ba_hDjaPhDjhGHtapbVK-4" target="Ba_hDjaPhDjhGHtapbVK-16">
          <mxGeometry relative="1" as="geometry" />
        </mxCell>
        <mxCell id="Ba_hDjaPhDjhGHtapbVK-4" value="线程一刚刚开始执行后，线程二才抢到资源执行" style="rounded=0;whiteSpace=wrap;html=1;" vertex="1" parent="1">
          <mxGeometry x="490" y="360" width="120" height="60" as="geometry" />
        </mxCell>
        <mxCell id="Ba_hDjaPhDjhGHtapbVK-5" value="" style="edgeStyle=orthogonalEdgeStyle;rounded=0;orthogonalLoop=1;jettySize=auto;html=1;" edge="1" parent="1" source="n-XYg9eNNjNnusgToyhC-3" target="Ba_hDjaPhDjhGHtapbVK-4">
          <mxGeometry relative="1" as="geometry" />
        </mxCell>
        <mxCell id="Ba_hDjaPhDjhGHtapbVK-9" value="" style="edgeStyle=orthogonalEdgeStyle;rounded=0;orthogonalLoop=1;jettySize=auto;html=1;" edge="1" parent="1" source="Ba_hDjaPhDjhGHtapbVK-6" target="Ba_hDjaPhDjhGHtapbVK-8">
          <mxGeometry relative="1" as="geometry" />
        </mxCell>
        <mxCell id="Ba_hDjaPhDjhGHtapbVK-6" value="&lt;span&gt;发起响应，发现没有其他线程使用锁对象A&lt;/span&gt;" style="whiteSpace=wrap;html=1;rounded=0;" vertex="1" parent="1">
          <mxGeometry x="150" y="460" width="120" height="60" as="geometry" />
        </mxCell>
        <mxCell id="Ba_hDjaPhDjhGHtapbVK-21" value="" style="edgeStyle=orthogonalEdgeStyle;rounded=0;orthogonalLoop=1;jettySize=auto;html=1;" edge="1" parent="1" source="Ba_hDjaPhDjhGHtapbVK-8" target="Ba_hDjaPhDjhGHtapbVK-20">
          <mxGeometry relative="1" as="geometry" />
        </mxCell>
        <mxCell id="Ba_hDjaPhDjhGHtapbVK-8" value="使用锁对象A同步" style="whiteSpace=wrap;html=1;rounded=0;" vertex="1" parent="1">
          <mxGeometry x="150" y="600" width="120" height="60" as="geometry" />
        </mxCell>
        <mxCell id="Ba_hDjaPhDjhGHtapbVK-10" value="cpu资源或者执行权" style="rounded=0;whiteSpace=wrap;html=1;" vertex="1" parent="1">
          <mxGeometry x="340" y="40" width="120" height="60" as="geometry" />
        </mxCell>
        <mxCell id="Ba_hDjaPhDjhGHtapbVK-12" value="" style="endArrow=classic;html=1;rounded=0;exitX=0.5;exitY=1;exitDx=0;exitDy=0;entryX=1;entryY=0.5;entryDx=0;entryDy=0;" edge="1" parent="1" source="Ba_hDjaPhDjhGHtapbVK-10" target="n-XYg9eNNjNnusgToyhC-1">
          <mxGeometry width="50" height="50" relative="1" as="geometry">
            <mxPoint x="390" y="360" as="sourcePoint" />
            <mxPoint x="390" y="360" as="targetPoint" />
          </mxGeometry>
        </mxCell>
        <mxCell id="Ba_hDjaPhDjhGHtapbVK-14" value="" style="endArrow=classic;html=1;rounded=0;exitX=1;exitY=0.5;exitDx=0;exitDy=0;entryX=0;entryY=0.5;entryDx=0;entryDy=0;" edge="1" parent="1" source="Ba_hDjaPhDjhGHtapbVK-3" target="Ba_hDjaPhDjhGHtapbVK-4">
          <mxGeometry width="50" height="50" relative="1" as="geometry">
            <mxPoint x="450" y="100" as="sourcePoint" />
            <mxPoint x="285" y="400" as="targetPoint" />
          </mxGeometry>
        </mxCell>
        <mxCell id="Ba_hDjaPhDjhGHtapbVK-15" value="" style="endArrow=classic;html=1;rounded=0;exitX=0;exitY=0.5;exitDx=0;exitDy=0;entryX=1;entryY=0.75;entryDx=0;entryDy=0;" edge="1" parent="1" source="Ba_hDjaPhDjhGHtapbVK-4" target="Ba_hDjaPhDjhGHtapbVK-6">
          <mxGeometry width="50" height="50" relative="1" as="geometry">
            <mxPoint x="285" y="400" as="sourcePoint" />
            <mxPoint x="500" y="400" as="targetPoint" />
          </mxGeometry>
        </mxCell>
        <mxCell id="Ba_hDjaPhDjhGHtapbVK-19" value="" style="edgeStyle=orthogonalEdgeStyle;rounded=0;orthogonalLoop=1;jettySize=auto;html=1;" edge="1" parent="1" source="Ba_hDjaPhDjhGHtapbVK-16" target="Ba_hDjaPhDjhGHtapbVK-18">
          <mxGeometry relative="1" as="geometry" />
        </mxCell>
        <mxCell id="Ba_hDjaPhDjhGHtapbVK-16" value="发起响应，发现没有其他线程使用锁对象B" style="whiteSpace=wrap;html=1;rounded=0;" vertex="1" parent="1">
          <mxGeometry x="490" y="460" width="120" height="60" as="geometry" />
        </mxCell>
        <mxCell id="Ba_hDjaPhDjhGHtapbVK-23" value="" style="edgeStyle=orthogonalEdgeStyle;rounded=0;orthogonalLoop=1;jettySize=auto;html=1;" edge="1" parent="1" source="Ba_hDjaPhDjhGHtapbVK-18" target="Ba_hDjaPhDjhGHtapbVK-22">
          <mxGeometry relative="1" as="geometry" />
        </mxCell>
        <mxCell id="Ba_hDjaPhDjhGHtapbVK-18" value="使用锁对象B同步" style="whiteSpace=wrap;html=1;rounded=0;" vertex="1" parent="1">
          <mxGeometry x="490" y="600" width="120" height="60" as="geometry" />
        </mxCell>
        <mxCell id="Ba_hDjaPhDjhGHtapbVK-20" value="发起响应，发现线程二使用锁对象B,等待释放" style="whiteSpace=wrap;html=1;rounded=0;" vertex="1" parent="1">
          <mxGeometry x="150" y="700" width="120" height="60" as="geometry" />
        </mxCell>
        <mxCell id="Ba_hDjaPhDjhGHtapbVK-22" value="发起响应，发现线程一使用锁对象A,等待释放" style="whiteSpace=wrap;html=1;rounded=0;" vertex="1" parent="1">
          <mxGeometry x="490" y="700" width="120" height="60" as="geometry" />
        </mxCell>
        <mxCell id="Ba_hDjaPhDjhGHtapbVK-24" value="" style="endArrow=classic;html=1;rounded=0;entryX=0;entryY=0.5;entryDx=0;entryDy=0;" edge="1" parent="1" target="Ba_hDjaPhDjhGHtapbVK-16">
          <mxGeometry width="50" height="50" relative="1" as="geometry">
            <mxPoint x="280" y="500" as="sourcePoint" />
            <mxPoint x="280" y="515" as="targetPoint" />
          </mxGeometry>
        </mxCell>
        <mxCell id="Ba_hDjaPhDjhGHtapbVK-25" value="" style="endArrow=classic;html=1;rounded=0;entryX=1;entryY=0.75;entryDx=0;entryDy=0;exitX=0;exitY=0.5;exitDx=0;exitDy=0;" edge="1" parent="1" source="Ba_hDjaPhDjhGHtapbVK-16" target="Ba_hDjaPhDjhGHtapbVK-8">
          <mxGeometry width="50" height="50" relative="1" as="geometry">
            <mxPoint x="290" y="510" as="sourcePoint" />
            <mxPoint x="500" y="500" as="targetPoint" />
          </mxGeometry>
        </mxCell>
        <mxCell id="Ba_hDjaPhDjhGHtapbVK-26" value="" style="endArrow=classic;html=1;rounded=0;entryX=0;entryY=0.5;entryDx=0;entryDy=0;exitX=1;exitY=0.75;exitDx=0;exitDy=0;" edge="1" parent="1" source="Ba_hDjaPhDjhGHtapbVK-8" target="Ba_hDjaPhDjhGHtapbVK-18">
          <mxGeometry width="50" height="50" relative="1" as="geometry">
            <mxPoint x="280" y="640" as="sourcePoint" />
            <mxPoint x="280" y="655.0000000000002" as="targetPoint" />
          </mxGeometry>
        </mxCell>
        <mxCell id="Ba_hDjaPhDjhGHtapbVK-27" value="" style="endArrow=classic;html=1;rounded=0;entryX=1;entryY=0.5;entryDx=0;entryDy=0;" edge="1" parent="1" target="Ba_hDjaPhDjhGHtapbVK-20">
          <mxGeometry width="50" height="50" relative="1" as="geometry">
            <mxPoint x="490" y="630" as="sourcePoint" />
            <mxPoint x="500" y="640.0000000000002" as="targetPoint" />
          </mxGeometry>
        </mxCell>
        <mxCell id="Ba_hDjaPhDjhGHtapbVK-28" value="" style="endArrow=classic;html=1;rounded=0;entryX=0;entryY=0.75;entryDx=0;entryDy=0;exitX=1;exitY=0.5;exitDx=0;exitDy=0;" edge="1" parent="1" source="Ba_hDjaPhDjhGHtapbVK-20" target="Ba_hDjaPhDjhGHtapbVK-22">
          <mxGeometry width="50" height="50" relative="1" as="geometry">
            <mxPoint x="500" y="640.0000000000002" as="sourcePoint" />
            <mxPoint x="280" y="740.0000000000002" as="targetPoint" />
          </mxGeometry>
        </mxCell>
        <mxCell id="Ba_hDjaPhDjhGHtapbVK-29" value="" style="endArrow=classic;html=1;rounded=0;entryX=0;entryY=0.5;entryDx=0;entryDy=0;exitX=1;exitY=0.5;exitDx=0;exitDy=0;" edge="1" parent="1" source="n-XYg9eNNjNnusgToyhC-1" target="n-XYg9eNNjNnusgToyhC-3">
          <mxGeometry width="50" height="50" relative="1" as="geometry">
            <mxPoint x="310" y="270" as="sourcePoint" />
            <mxPoint x="360" y="250" as="targetPoint" />
          </mxGeometry>
        </mxCell>
        <mxCell id="Ba_hDjaPhDjhGHtapbVK-30" value="" style="endArrow=classic;html=1;rounded=0;" edge="1" parent="1">
          <mxGeometry width="50" height="50" relative="1" as="geometry">
            <mxPoint x="470" y="250" as="sourcePoint" />
            <mxPoint x="280" y="390" as="targetPoint" />
          </mxGeometry>
        </mxCell>
      </root>
    </mxGraphModel>
  </diagram>
</mxfile>
